<mxfile host="app.diagrams.net" modified="2023-12-12T09:13:58.713Z" agent="Mozilla/5.0 (Windows NT 10.0; Win64; x64) AppleWebKit/537.36 (KHTML, like Gecko) Chrome/120.0.0.0 Safari/537.36" version="22.1.7" etag="05wGi5V3jl3e7ASPEmz2" type="github">
  <diagram name="第 1 页" id="IPP_ximfZdQC23d31qsy">
    <mxGraphModel>
      <root>
        <mxCell id="0" />
        <mxCell id="1" parent="0" />
      </root>
    </mxGraphModel>
  </diagram>
</mxfile>
